<svg width="118" height="24" viewBox="0 0 118 24" fill="none" xmlns="http://www.w3.org/2000/svg">
    <path d="M37.88 19.39a2.65 2.65 0 0 1-1.67-.48 1.56 1.56 0 0 1-.63-1.31V8.33a.26.26 0 0 1 .29-.29h1.68c.19 0 .28.1.28.29v8.55c0 .38.17.57.52.57.148.006.297-.01.44-.05.2 0 .31.06.32.24l.15 1.25a.26.26 0 0 1-.24.31 3.773 3.773 0 0 1-1.14.19z" fill="#696871"/>
    <path fill-rule="evenodd" clip-rule="evenodd" d="M41.33 18.32a4.71 4.71 0 0 0 6 0v-.01a4.06 4.06 0 0 0 0-5.62 4.73 4.73 0 0 0-6 0 4 4 0 0 0 0 5.63zM45.77 17a2.13 2.13 0 0 1-2.86 0 2.24 2.24 0 0 1 0-2.94 2.13 2.13 0 0 1 2.86 0 2.24 2.24 0 0 1 0 2.94zM57.99 12.16c0-.19-.09-.29-.28-.29l-1.66.01a.26.26 0 0 0-.28.29v.16a3.36 3.36 0 0 0-2.13-.69 3.91 3.91 0 0 0-2.84 1.08 4 4 0 0 0 0 5.56 3.88 3.88 0 0 0 2.84 1.09 3.35 3.35 0 0 0 2.08-.65v.63a1.7 1.7 0 0 1-.47 1.25 1.77 1.77 0 0 1-1.29.46 2.34 2.34 0 0 1-1.12-.26 1.31 1.31 0 0 1-.61-.71.37.37 0 0 0-.33-.23h-1.68c-.27 0-.27.09-.27.29a3 3 0 0 0 1.31 2 4.68 4.68 0 0 0 2.71.75 4.2 4.2 0 0 0 2.91-1 3.26 3.26 0 0 0 1.11-2.57v-7.17zM55.2 17a1.76 1.76 0 0 1-1.37.59 1.81 1.81 0 0 1-1.39-.59 2.16 2.16 0 0 1-.53-1.49 2.12 2.12 0 0 1 .54-1.5 1.8 1.8 0 0 1 1.39-.59 1.75 1.75 0 0 1 1.36.58 2.45 2.45 0 0 1 0 3zM60.62 18.32a4.73 4.73 0 0 0 6 0v-.01a4.06 4.06 0 0 0 0-5.62 4.74 4.74 0 0 0-6 0 4.07 4.07 0 0 0 0 5.63zm3.01-.77a2 2 0 0 1-1.44-.55 2.27 2.27 0 0 1 0-2.94 2 2 0 0 1 1.44-.55 2 2 0 0 1 1.43.55 2.27 2.27 0 0 1 0 2.94 2 2 0 0 1-1.43.55zM69.45 10.17a1.45 1.45 0 0 0 1.91 0 1.21 1.21 0 0 0 0-1.76 1.48 1.48 0 0 0-1.91 0 1.21 1.21 0 0 0 0 1.76zm.45 8.74a2.69 2.69 0 0 0 1.67.48c.39-.004.779-.068 1.15-.19a.26.26 0 0 0 .24-.31l-.15-1.25c-.01-.18-.12-.24-.32-.24a1.549 1.549 0 0 1-.45.05c-.34 0-.51-.19-.51-.57v-4.72c0-.19-.09-.29-.28-.29h-1.68a.26.26 0 0 0-.29.29v5.44c-.018.511.213 1 .62 1.31zM82 12.71a3.92 3.92 0 0 0-2.86-1.08 3.37 3.37 0 0 0-2.47 1 1.85 1.85 0 0 0-1.81-1 3.003 3.003 0 0 0-1.08.18.32.32 0 0 0-.23.33v1.18c0 .16.11.24.33.24h.33a.52.52 0 0 1 .59.59v8.2a.24.24 0 0 0 .28.28h1.68c.19 0 .29-.09.29-.28v-3.61a3.44 3.44 0 0 0 2.09.65A3.89 3.89 0 0 0 82 18.3a4.1 4.1 0 0 0 0-5.59zm-3.04 4.88a1.91 1.91 0 0 1-1.38-.59 2.24 2.24 0 0 1-.53-1.53 2.21 2.21 0 0 1 .53-1.53 1.91 1.91 0 0 1 2.76 0c.378.417.576.967.55 1.53a2.16 2.16 0 0 1-.55 1.53 1.91 1.91 0 0 1-1.38.59z" fill="#696871"/>
    <path d="M87.82 19.39a4.82 4.82 0 0 1-2.57-.62A2.44 2.44 0 0 1 84.09 17c0-.2.07-.3.29-.3h1.47a.38.38 0 0 1 .33.22c.21.54.76.81 1.64.81a1.87 1.87 0 0 0 .89-.18.58.58 0 0 0 .34-.49c0-.26-.16-.44-.48-.56a5.412 5.412 0 0 0-1.17-.25A11.13 11.13 0 0 1 86 16a2.3 2.3 0 0 1-1.17-.67 2.14 2.14 0 0 1 .43-3.1 4.12 4.12 0 0 1 2.42-.64 4.42 4.42 0 0 1 2.36.59 2.23 2.23 0 0 1 1.1 1.57c0 .2-.09.3-.27.3h-1.48a.31.31 0 0 1-.3-.18 1 1 0 0 0-.52-.53 1.76 1.76 0 0 0-.86-.2 1.74 1.74 0 0 0-.85.17.5.5 0 0 0-.32.46.64.64 0 0 0 .48.59 5.42 5.42 0 0 0 1.19.3c.468.062.932.148 1.39.26a2.3 2.3 0 0 1 1.17.67c.34.373.516.866.49 1.37a2 2 0 0 1-.93 1.74 4.37 4.37 0 0 1-2.51.69zM101.83 18.89a.27.27 0 0 1-.23.31 3.86 3.86 0 0 1-1.13.19 2.22 2.22 0 0 1-2-.87 3.62 3.62 0 0 1-2.55.87 3.1 3.1 0 0 1-2.34-.91 3.28 3.28 0 0 1-.89-2.41v-3.91c0-.19.09-.29.28-.29h1.68c.19 0 .28.1.28.29v3.61c-.018.45.135.89.43 1.23a1.5 1.5 0 0 0 1.15.47c.443.02.875-.14 1.2-.44a1.6 1.6 0 0 0 .45-1.19v-3.68c0-.19.09-.29.28-.29h1.7c.19 0 .28.1.28.29v4.71c0 .39.17.58.5.58.155.006.31-.01.46-.05a.26.26 0 0 1 .33.24l.12 1.25zM117.72 18.89a.249.249 0 0 1-.23.31c-.372.12-.759.185-1.15.19a2.67 2.67 0 0 1-1.67-.48 1.56 1.56 0 0 1-.67-1.31v-2.35a1.77 1.77 0 0 0-.42-1.23 1.42 1.42 0 0 0-1.12-.47 1.25 1.25 0 0 0-1 .44 1.779 1.779 0 0 0-.38 1.18v3.69c0 .19-.09.29-.28.29h-1.69a.26.26 0 0 1-.29-.29v-3.61a1.851 1.851 0 0 0-.39-1.23 1.3 1.3 0 0 0-1-.47 1.45 1.45 0 0 0-1.1.44 1.651 1.651 0 0 0-.41 1.18v3.69a.261.261 0 0 1-.29.29H104c-.19 0-.28-.1-.28-.29v-4.71a.52.52 0 0 0-.59-.59h-.33c-.22 0-.33-.08-.33-.24v-1.18a.32.32 0 0 1 .23-.33 3.002 3.002 0 0 1 1.08-.18 1.88 1.88 0 0 1 1.78.92 3.38 3.38 0 0 1 2.54-.92 2.87 2.87 0 0 1 2.37 1.06 3.3 3.3 0 0 1 2.62-1.06 3.16 3.16 0 0 1 2.37.91 3.26 3.26 0 0 1 .89 2.41v1.93c0 .38.17.57.49.57a1.5 1.5 0 0 0 .46-.05c.207 0 .317.08.33.24l.09 1.25z" fill="#696871"/>
    <path fill-rule="evenodd" clip-rule="evenodd" d="M.46 10.57a13.69 13.69 0 0 1 26.57 0h-1.2a9.69 9.69 0 0 0-5.67 1.73c-.096.07-.196.133-.3.19h-.14a2.856 2.856 0 0 1-.3-.19 10.17 10.17 0 0 0-11.35 0c-.096.07-.196.133-.3.19h-.14a2.847 2.847 0 0 1-.3-.19 9.69 9.69 0 0 0-5.67-1.73H.46zm23.21 6.27a3.37 3.37 0 0 1 2.16-.71h1.61v-3.21h-1.61A6.38 6.38 0 0 0 22 14.14a3.64 3.64 0 0 1-4.32 0 6.8 6.8 0 0 0-7.77 0 3.64 3.64 0 0 1-4.32 0 6.38 6.38 0 0 0-3.88-1.22H.05v3.21h1.61a3.37 3.37 0 0 1 2.16.71 6.78 6.78 0 0 0 7.76 0 3.39 3.39 0 0 1 2.16-.71 3.35 3.35 0 0 1 2.16.71 6.8 6.8 0 0 0 7.77 0zm2.16 5.03a3.37 3.37 0 0 0-2.16.71 6.8 6.8 0 0 1-7.77 0 3.35 3.35 0 0 0-2.16-.71 3.39 3.39 0 0 0-2.16.71 6.78 6.78 0 0 1-7.76 0 3.37 3.37 0 0 0-2.16-.71H.05v-3.21h1.66a6.38 6.38 0 0 1 3.88 1.22 3.64 3.64 0 0 0 4.32 0 6.8 6.8 0 0 1 7.77 0 3.64 3.64 0 0 0 4.32 0 6.38 6.38 0 0 1 3.83-1.22h1.61v3.21h-1.61z" fill="#696871"/>
</svg>
