<svg width="200" height="41" viewBox="0 0 200 41" fill="none" xmlns="http://www.w3.org/2000/svg">
    <path d="M30.028 18.193A5.377 5.377 0 0 0 28.49 22.5l-.027-.026a6.388 6.388 0 0 1-6.903 6.902l.027.027a5.409 5.409 0 1 0 4.884 4.88l.027.026a6.388 6.388 0 0 1 6.903-6.903l-.028-.027a5.398 5.398 0 1 0-3.34-9.186h-.005z" fill="#5454D4"/>
    <path d="m19.18 25.935-.029-.026A5.34 5.34 0 0 0 25 20.065l.028.026a6.388 6.388 0 0 1 6.903-6.903l-.028-.026a5.409 5.409 0 1 0-4.88-4.88l-.026-.028a6.387 6.387 0 0 1-6.903 6.903l.027.028a5.34 5.34 0 0 0-5.849 5.844l-.026-.026a6.39 6.39 0 0 1-6.903 6.903l.026.026a5.409 5.409 0 1 0 4.88 4.88l.027.026a6.388 6.388 0 0 1 6.903-6.903z" fill="#FF7143"/>
    <path d="M9.324 22.984a5.37 5.37 0 0 0 1.536-4.308l.028.027a6.388 6.388 0 0 1 6.906-6.903l-.028-.027a5.407 5.407 0 1 0-4.88-4.879l-.026-.026a6.388 6.388 0 0 1-6.903 6.903l.027.026a5.398 5.398 0 1 0 3.342 9.187h-.002z" fill="#5454D4"/>
    <path d="M54.878 8.316h4.368v21.255h-4.368V8.316z" fill="#19191B"/>
    <path fill-rule="evenodd" clip-rule="evenodd" d="M66.461 15.142a7.716 7.716 0 0 0-4.742 7.15 7.63 7.63 0 0 0 7.716 7.686 7.716 7.716 0 1 0-2.974-14.836zm2.912 3.894a3.35 3.35 0 0 1 3.41 3.257 3.266 3.266 0 0 1-3.348 3.442 3.35 3.35 0 0 1-.062-6.7zM94.559 28.837V15.013l-4.252-.003v1.486a5.171 5.171 0 0 0-4.251-1.893 7.399 7.399 0 0 0 0 14.79 5.17 5.17 0 0 0 4.251-1.893v1.33a2.902 2.902 0 0 1-3.29 3.116 3.327 3.327 0 0 1-3.319-1.834l-3.726 2.154a7.444 7.444 0 0 0 6.9 3.53c3.872 0 7.687-2.068 7.687-6.96zm-6.326-10.201A3.53 3.53 0 0 1 90.31 22a3.294 3.294 0 0 1-3.522 3.382 3.53 3.53 0 1 1 1.446-6.746zM101.774 15.142a7.717 7.717 0 0 0-4.742 7.15 7.63 7.63 0 0 0 7.717 7.686 7.715 7.715 0 1 0-2.975-14.836zm2.912 3.894a3.35 3.35 0 0 1 3.411 3.257 3.265 3.265 0 0 1-3.348 3.442 3.35 3.35 0 0 1-.063-6.7zM116.119 8.69a2.621 2.621 0 0 0-1.618 2.422 2.648 2.648 0 0 0 2.621 2.62 2.62 2.62 0 1 0-1.003-5.041zm3.193 6.323h-4.369l-.006 14.559h4.375V15.013zM136.289 27.582a7.311 7.311 0 0 0 1.882-5.29 7.31 7.31 0 0 0-6.959-7.686 5.467 5.467 0 0 0-4.337 1.775v-1.368h-4.368v20.381h4.368v-7.192a5.463 5.463 0 0 0 4.337 1.776 7.309 7.309 0 0 0 5.077-2.396zm-6.008-8.667a3.465 3.465 0 0 1 3.522 3.378 3.325 3.325 0 0 1-3.463 3.551 3.464 3.464 0 0 1-.059-6.929z" fill="#19191B"/>
    <path d="M151.649 25.203c0 3.349-2.911 4.775-6.055 4.775a6.375 6.375 0 0 1-6.26-3.465l3.784-2.154a2.392 2.392 0 0 0 2.47 1.717c1.047 0 1.572-.32 1.572-.901 0-1.603-7.163-.757-7.163-5.794 0-3.175 2.679-4.775 5.707-4.775a6.367 6.367 0 0 1 5.677 3.115l-3.727 2.008a2.112 2.112 0 0 0-1.95-1.28c-.757 0-1.223.294-1.223.814.006 1.66 7.168.553 7.168 5.94zM167.603 15.013v14.56h-4.368v-1.37a4.973 4.973 0 0 1-4.161 1.776c-2.942 0-5.442-2.095-5.442-6.029v-8.937H158v8.297a2.4 2.4 0 0 0 2.532 2.647c1.602 0 2.708-.93 2.708-2.998v-7.941l4.363-.005zM192.647 20.632v8.939h-4.368v-8.56c0-1.457-.698-2.387-2.095-2.387-1.456 0-2.272 1.019-2.272 2.736v8.21h-4.366v-8.56c0-1.456-.699-2.387-2.097-2.387-1.456 0-2.271 1.02-2.271 2.737v8.21h-4.368V15.013h4.368v1.338a4.47 4.47 0 0 1 3.901-1.746 4.332 4.332 0 0 1 3.814 1.921 4.796 4.796 0 0 1 4.222-1.92c3.342 0 5.532 2.388 5.532 6.027zM196.341 14.924a3.241 3.241 0 1 0 0-6.483 3.241 3.241 0 0 0 0 6.482z" fill="#19191B"/>
</svg>
